<?xml version="1.0" encoding="UTF-8"?>
<svg id="Layer_1" xmlns="http://www.w3.org/2000/svg" viewBox="0 0 900 240.88">
  <defs>
    <style>
      .cls-1 {
        fill: #c4d30d;
      }
    </style>
  </defs>
  <path d="M56.21,149.91c0,21.86,14.67,34.03,32.11,34.03,16.33,0,25.46-10.24,28.51-20.47l37.08,11.36c-6.08,24.07-28.77,47.87-65.59,47.87-40.96,0-73.88-30.17-73.88-72.78s32.11-73.05,72.5-73.05c37.91,0,60.05,23.24,66.14,47.87l-37.63,11.34c-3.05-10.51-11.36-20.47-27.66-20.47-17.44,0-31.54,12.18-31.54,34.31h-.04Z"/>
  <path d="M272.04,173.15c.55,9.42,7.19,18.53,21.58,18.53,10.79,0,16.04-5.82,16.04-11.9,0-4.97-3.31-9.13-13.56-11.34l-15.78-3.6c-29.34-6.37-40.96-22.98-40.96-42.33,0-25.18,22.15-45.67,52.86-45.67,39.85,0,53.69,24.92,55.06,40.96l-34.88,6.37c-1.11-9.13-6.91-16.87-19.64-16.87-8.02,0-14.95,4.71-14.95,11.9,0,5.82,4.71,9.13,10.79,10.24l18.27,3.6c28.51,5.82,42.33,22.98,42.33,43.16,0,23.52-17.98,46.5-54.8,46.5-43.16,0-57-27.95-58.11-43.16l35.71-6.37.04-.02Z"/>
  <path d="M402.19,149.91c0,21.86,14.67,34.03,32.11,34.03,16.33,0,25.46-10.24,28.51-20.47l37.08,11.36c-6.08,24.07-28.77,47.87-65.59,47.87-40.96,0-73.88-30.17-73.88-72.78s32.11-73.05,72.5-73.05c37.91,0,60.05,23.24,66.14,47.87l-37.63,11.34c-3.05-10.51-11.36-20.47-27.66-20.47-17.44,0-31.54,12.18-31.54,34.31h-.04Z"/>
  <path d="M549.68,139.1l32.37-4.97c7.48-1.11,9.96-4.71,9.96-9.42,0-8.02-6.91-14.95-20.21-14.95-14.67,0-22.69,9.96-23.52,20.21l-36.53-7.48c1.66-19.64,19.92-45.67,60.32-45.67,44.56,0,60.88,24.92,60.88,53.12v67.25c0,10.79,1.39,19.92,1.66,21.3h-37.91c-.28-1.11-1.37-6.08-1.37-15.5-7.19,11.62-20.47,19.38-38.74,19.38-30.17,0-47.61-19.92-47.61-41.79,0-24.35,17.98-38.19,40.68-41.5l.02.02ZM592.01,164.56v-6.08l-26.01,4.14c-8.85,1.37-15.5,5.54-15.5,15.22,0,7.19,4.71,14.1,16.33,14.1,12.45,0,25.18-6.08,25.18-27.4v.02Z"/>
  <path d="M654.55,218.53V18.18h42.07v200.35h-42.07Z"/>
  <path d="M847.71,178.95c-6.65,23.8-28.51,43.73-63.37,43.73-37.91,0-71.67-27.12-71.67-73.33s32.94-72.5,68.62-72.5c42.62,0,68.91,26.29,68.91,70.56,0,5.82-.55,12.18-.83,13.01h-95.74c.83,15.5,14.95,26.57,31.28,26.57,15.22,0,23.8-7.19,27.66-17.98l35.14,9.96v-.02ZM809.52,133.28c-.55-10.51-7.74-23.24-27.66-23.24-17.7,0-26.57,13.01-27.4,23.24h55.06Z"/>
  <rect class="cls-1" x="172.86" y="179.9" width="42.8" height="42.8"/>
  <path d="M858.68,20.91v14.45h-2.91v-14.45h-5.58v-2.73h14.08v2.73h-5.6Z"/>
  <path d="M882.67,35.36v-12.65l-5.35,12.65h-2.53l-5.31-12.61v12.61h-2.83v-17.18h3.88l5.58,13.11,5.5-13.11h3.96v17.18h-2.89Z"/>
</svg>